<?xml version="1.0" standalone="no"?>
<!DOCTYPE svg PUBLIC "-//W3C//DTD SVG 20010904//EN"
 "http://www.w3.org/TR/2001/REC-SVG-20010904/DTD/svg10.dtd">
<svg version="1.0" xmlns="http://www.w3.org/2000/svg"
 width="1208.000000pt" height="486.000000pt" viewBox="0 0 1208.000000 486.000000"
 preserveAspectRatio="xMidYMid meet">
<metadata>
Created by potrace 1.16, written by Peter Selinger 2001-2019
</metadata>
<g transform="translate(0.000000,486.000000) scale(0.100000,-0.100000)"
fill="#000000" stroke="none">
<path d="M2997 4843 c-4 -3 -7 -167 -7 -364 0 -221 -4 -360 -10 -364 -5 -3
-71 -9 -146 -12 l-136 -6 -30 -41 c-16 -23 -101 -150 -188 -283 -88 -134 -164
-243 -169 -243 -5 0 -35 34 -66 75 l-56 74 -159 3 c-100 2 -156 0 -150 -7 6
-5 10 -22 10 -38 0 -25 -2 -28 -15 -17 -17 14 -21 80 -5 80 6 0 10 25 10 56 0
47 -2 55 -14 45 -11 -10 -14 -2 -12 44 1 53 9 69 19 43 3 -7 6 8 6 33 1 26 -6
60 -14 75 -8 16 -15 42 -15 57 0 24 -3 27 -20 22 -17 -5 -20 -2 -20 24 0 17
-4 31 -8 31 -4 0 -7 -28 -6 -62 3 -111 4 -114 13 -100 5 8 8 -42 8 -115 0
-125 0 -126 -7 -38 l-6 90 -2 -97 c-1 -53 -5 -103 -8 -112 -5 -13 -27 -16
-138 -16 l-131 0 -85 -116 c-47 -63 -106 -143 -131 -177 -25 -34 -96 -130
-158 -213 l-111 -152 0 -1211 0 -1211 818 2 817 3 3 201 2 201 53 6 c96 12
659 42 780 42 l119 0 1 -260 2 -260 30 -1 c17 -1 384 -5 817 -9 l788 -8 2 204
3 204 110 6 c61 3 234 11 385 17 151 7 343 17 425 22 83 6 176 10 208 10 l57
0 1 -180 c1 -99 2 -186 3 -192 1 -9 23 -13 76 -13 162 0 1264 16 1405 20 l150
5 -3 632 c-2 348 -5 746 -7 883 -2 138 -4 394 -4 571 l-1 321 -73 94 c-39 52
-79 104 -87 116 -8 12 -86 116 -174 232 l-158 211 -102 0 c-55 0 -126 -3 -156
-6 l-56 -6 4 -37 c3 -29 2 -34 -9 -23 -9 9 -14 54 -16 158 -1 80 -6 151 -10
157 -5 7 -9 26 -10 42 -1 17 -6 70 -12 120 -5 49 -7 93 -5 97 3 4 -2 8 -11 8
-9 0 -13 -5 -10 -11 4 -5 8 -42 8 -80 2 -58 0 -67 -10 -52 -7 9 -13 36 -13 60
0 24 -5 43 -11 43 -6 0 -8 -16 -5 -42 3 -24 7 -131 8 -238 l3 -195 -125 4
-125 3 -135 -190 c-74 -105 -138 -191 -142 -191 -5 -1 -8 24 -8 54 0 57 -8 71
-132 220 -67 80 -174 211 -270 329 l-113 138 -133 -1 -132 -2 -2 273 c0 150 0
333 2 406 l2 132 -36 0 -36 0 -1 -132 c-1 -73 -3 -254 -4 -401 -1 -162 -6
-272 -12 -278 -6 -6 -76 -13 -156 -16 -80 -3 -150 -9 -154 -12 -5 -3 -65 -89
-133 -191 -281 -419 -313 -465 -327 -465 -7 0 -53 54 -102 120 l-88 120 -154
3 -155 2 4 -35 c3 -28 1 -34 -10 -30 -15 6 -20 65 -6 65 9 0 -3 314 -13 320
-4 3 -9 52 -11 108 -2 107 -18 144 -18 45 0 -112 -1 -123 -11 -118 -5 4 -9 34
-9 67 0 34 -3 58 -7 54 -5 -4 -9 -109 -10 -233 -1 -123 -4 -228 -8 -231 -4 -4
-62 -5 -131 -4 l-124 3 -117 -160 c-65 -88 -123 -160 -129 -161 -12 0 -24 75
-24 156 0 51 -2 54 -106 180 -58 71 -125 152 -148 179 -24 28 -71 84 -105 125
-34 41 -81 97 -104 124 -23 27 -46 55 -50 63 -7 12 -33 13 -153 7 l-144 -7 0
367 0 366 -33 0 c-19 0 -37 -3 -40 -7z m-23 -857 c-6 -16 35 -29 51 -16 6 5
20 7 32 4 12 -3 31 -1 43 6 30 16 60 -11 60 -56 0 -26 -9 -40 -41 -68 -35 -29
-47 -34 -73 -29 -17 3 -41 13 -53 21 -13 8 -23 11 -23 8 0 -3 15 -15 33 -26
35 -22 24 -27 -17 -9 -50 23 -71 122 -35 165 15 18 30 18 23 0z m2951 -191 c0
-35 -6 -50 -29 -74 -29 -30 -56 -41 -56 -21 0 5 -13 7 -28 4 -22 -4 -37 2 -69
28 -35 27 -42 39 -42 69 -1 38 31 81 44 59 3 -6 21 -10 38 -10 18 0 49 -3 71
-6 37 -6 38 -5 31 17 l-7 24 23 -23 c18 -17 24 -33 24 -67z m-3982 -269 c14
-20 -2 -79 -29 -108 -33 -34 -12 -39 25 -5 l26 22 -20 -24 c-11 -13 -35 -30
-52 -38 -28 -11 -38 -11 -69 2 -19 8 -33 18 -30 23 3 5 -4 28 -16 51 -16 34
-19 47 -10 66 8 17 17 22 31 18 10 -3 27 -1 37 5 21 12 96 3 107 -12z m5385 1
c22 -15 14 -83 -14 -116 -19 -23 -22 -31 -11 -31 9 0 25 12 36 26 12 15 21 22
21 17 0 -12 -38 -45 -72 -62 -22 -11 -33 -11 -72 4 -25 10 -46 20 -46 22 0 3
7 3 15 -1 20 -7 19 0 -6 35 -14 20 -19 41 -17 66 3 33 6 38 25 35 13 -2 30 1
38 5 19 11 85 10 103 0z m-2766 -81 c15 -22 8 -64 -17 -100 -14 -20 -25 -41
-25 -46 0 -10 -10 -13 -42 -13 -30 0 -77 24 -72 37 3 7 -2 29 -11 49 -21 50
-11 89 20 81 13 -3 31 -1 41 4 21 12 96 3 106 -12z m1238 -289 c0 -30 -4 -35
-38 -45 -21 -7 -49 -23 -61 -36 -44 -47 -44 -38 -11 -746 5 -118 14 -316 20
-440 11 -246 18 -351 22 -355 7 -6 357 17 406 26 110 22 159 97 200 311 l18
93 77 3 77 3 -2 -258 -3 -257 -35 -7 c-19 -4 -147 -12 -285 -18 -137 -6 -329
-16 -425 -21 -96 -5 -235 -12 -307 -16 l-133 -6 0 34 c0 31 5 36 53 59 76 36
82 54 80 229 -1 80 -7 219 -12 310 -6 91 -17 323 -26 515 -22 492 -29 521
-118 547 -55 15 -67 25 -67 55 0 13 6 26 13 28 17 7 300 22 440 24 l117 1 0
-33z m-2169 -78 c12 -122 10 -309 -3 -314 -7 -2 -41 -6 -76 -8 l-63 -5 -20 46
c-41 96 -64 135 -101 168 l-38 34 -113 0 c-116 -1 -316 -16 -325 -24 -3 -3 3
-137 12 -298 9 -161 16 -306 16 -321 l0 -29 118 7 c64 4 133 13 151 19 41 13
69 56 86 130 l11 51 74 8 c40 4 76 4 80 0 11 -11 32 -466 22 -474 -4 -4 -37
-10 -73 -14 l-67 -7 -35 73 c-20 41 -46 80 -59 88 -24 15 -195 18 -267 5 l-33
-7 6 -106 c3 -58 11 -216 17 -351 6 -135 15 -249 19 -253 9 -10 340 10 391 24
85 22 127 89 172 279 l13 55 42 3 42 3 0 -219 0 -219 -122 -12 c-68 -6 -193
-15 -278 -21 -85 -5 -265 -17 -399 -25 -134 -9 -249 -14 -257 -11 -8 3 -14 16
-14 30 0 19 10 30 46 48 87 43 89 57 69 438 -9 162 -20 379 -25 482 -31 609
-31 612 -125 638 -33 9 -44 18 -48 36 -8 45 8 51 158 58 77 3 196 11 265 16
110 8 516 35 655 43 28 2 55 3 60 2 6 -1 13 -30 16 -66z m-1614 -207 c86 -21
192 -66 231 -98 24 -21 22 -4 52 -574 5 -102 12 -221 15 -265 3 -44 10 -165
15 -270 6 -104 13 -233 16 -286 l7 -95 -54 -48 c-72 -62 -193 -121 -304 -147
-80 -18 -134 -21 -482 -26 l-393 -6 0 37 c0 31 4 38 28 46 50 18 76 38 94 72
17 30 18 82 18 766 0 706 -1 734 -19 771 -15 29 -32 43 -70 59 -53 23 -60 33
-53 70 l5 24 406 -5 c361 -4 415 -7 488 -25z m5707 -79 c5 -64 10 -463 7 -525
-1 -12 -9 -18 -26 -18 -21 0 -25 5 -25 29 0 37 -45 191 -70 240 -36 72 -116
148 -198 188 -70 35 -83 38 -161 38 -71 0 -94 -4 -130 -23 -93 -50 -151 -144
-151 -245 0 -129 82 -211 401 -402 300 -179 378 -244 433 -361 30 -63 56 -167
56 -224 0 -58 -28 -171 -57 -230 -16 -31 -57 -84 -94 -121 -109 -109 -211
-145 -390 -137 -87 4 -125 12 -232 46 -70 23 -139 42 -152 42 -26 0 -48 -27
-59 -73 -5 -20 -12 -27 -31 -27 l-25 0 0 108 c0 60 -3 197 -7 305 l-6 197 24
0 c23 0 27 -7 42 -72 26 -109 63 -197 105 -253 90 -120 263 -188 414 -164 80
13 126 38 180 98 54 60 72 116 66 203 -8 135 -71 207 -315 357 -247 153 -342
221 -411 295 -96 103 -132 193 -132 325 0 138 44 245 140 342 143 145 345 169
580 68 41 -17 85 -31 98 -31 32 0 60 29 68 68 5 27 11 34 29 34 21 0 23 -6 29
-77z m-3021 -136 c27 -78 59 -171 72 -207 50 -139 106 -291 159 -435 132 -355
139 -382 147 -565 4 -91 10 -229 14 -306 l8 -142 -94 -7 c-52 -3 -128 -5 -169
-3 l-75 3 -3 32 c-3 25 1 32 20 38 160 44 165 117 31 483 l-16 42 -268 0
c-147 0 -270 -4 -273 -9 -18 -28 -76 -295 -76 -346 0 -92 37 -145 117 -166 34
-9 42 -16 45 -40 3 -16 2 -31 0 -34 -3 -3 -135 -5 -294 -5 l-288 0 0 30 c0 24
7 33 39 50 22 10 53 36 70 56 36 44 92 171 126 286 55 186 159 543 200 688 86
309 126 437 210 688 3 9 38 12 127 12 l123 0 48 -143z"/>
<path d="M1603 2773 l-43 -4 0 -789 0 -789 47 -7 c29 -4 92 -1 163 9 199 28
316 106 399 266 64 124 89 227 101 419 16 254 -9 429 -85 587 -89 185 -212
273 -422 304 -39 6 -82 10 -95 9 -13 -1 -42 -3 -65 -5z"/>
<path d="M4447 2333 c-41 -147 -152 -571 -160 -617 -2 -8 454 -9 462 0 5 5
-26 99 -89 274 -23 63 -70 195 -104 292 -33 98 -64 178 -67 178 -3 0 -22 -57
-42 -127z"/>
</g>
</svg>
